<svg xmlns="http://www.w3.org/2000/svg" xmlns:xlink="http://www.w3.org/1999/xlink" viewBox="0 0 400.26 353.33"><defs><style>.cls-1{isolation:isolate;}.cls-2{fill:#0f2a47;mix-blend-mode:multiply;}.cls-3{fill:#226fa3;}.cls-4{fill:none;stroke:#226fa3;stroke-miterlimit:10;stroke-width:4px;}.cls-5{fill:#e3efef;}.cls-6{fill:url(#linear-gradient);}.cls-7{fill:#fff;}.cls-8{fill:#e75642;}</style><linearGradient id="linear-gradient" x1="75.97" y1="149.37" x2="345.27" y2="12.88" gradientUnits="userSpaceOnUse"><stop offset="0" stop-color="#e65345"/><stop offset="1" stop-color="#f88b00"/></linearGradient></defs><g class="cls-1"><g id="Layer_2" data-name="Layer 2"><g id="Layer_1-2" data-name="Layer 1"><path class="cls-2" d="M307.24,103.18A100.91,100.91,0,1,1,206.33,2.27,100.91,100.91,0,0,1,307.24,103.18Z"/><path class="cls-3" d="M161.93,13.06a.27.27,0,0,0-.14,0,4.92,4.92,0,0,0-.6.29c-.05,0-.63.51-.63.52s-.07.06-.05.07.28.12,1.1-.46C162.07,13.19,162,13.07,161.93,13.06Z"/><path class="cls-3" d="M160.59,12.53s0,0-.06,0l-.51.24c-.06,0-.12.1-.1.12a.64.64,0,0,0,.29-.1A2,2,0,0,0,160.59,12.53Z"/><path class="cls-3" d="M163,11.45a2.26,2.26,0,0,0,.48-.16s.24-.1.58-.28c0,0,.4-.21.47-.26s0,0-.09,0A22.33,22.33,0,0,0,161.64,12l.74-.3A5,5,0,0,1,163,11.45Z"/><path class="cls-3" d="M161.46,12.34h0a3,3,0,0,1,.6-.28l.58-.25.08-.05-.12,0a11.21,11.21,0,0,0-3.06,1.53,14.52,14.52,0,0,0,1.93-.88A.19.19,0,0,1,161.46,12.34Z"/><path class="cls-3" d="M163.08,12.18l.1-.07.15-.15.3-.26c.05,0,.05-.06.05-.07s0,0-.05,0a4,4,0,0,0-.92.57h0s0,0-.09.23C162.66,12.43,163.08,12.18,163.08,12.18Z"/><path class="cls-3" d="M159.07,15.13l-.1,0a2.13,2.13,0,0,0-.27.1,4.82,4.82,0,0,0-.86.57h0a5,5,0,0,0,1.09-.51C159.05,15.24,159.15,15.14,159.07,15.13Z"/><path class="cls-3" d="M159.8,16.78s-.08-.05-.29,0l-.12,0-1,.21a6.28,6.28,0,0,0-2,1,0,0,0,0,0,0,0c.11,0,.23,0,.34.05s.12.19.08.25a8.73,8.73,0,0,1-1.23.91.22.22,0,0,1-.17.05c-.07-.27.26-.36.27-.59a2.76,2.76,0,0,0-1.13.72.13.13,0,0,0,0,.09,4.43,4.43,0,0,1,.2.58,1,1,0,0,1,.07.24c0,.15-.1.28-.07.44a.13.13,0,0,0,0,.08c.26.27,2.59-1.1,3.23-1.74.13-.14.54-.95.27-.94a4.5,4.5,0,0,0-.82.22c.54-.37,1.15-.62,1.7-1C159.1,17.41,159.79,16.83,159.8,16.78Z"/><path class="cls-3" d="M153.11,16.68c1-.45,1.87-1.17,2.86-1.65a9.8,9.8,0,0,0-1.05.68l3.4-1.93a.84.84,0,0,0,.27-.23.3.3,0,0,0-.13,0,62,62,0,0,0-6.56,3.76c.51-.07.83-.49,1.27-.7Z"/><path class="cls-3" d="M153.12,23.85h0a.81.81,0,0,0-.23.13,12.94,12.94,0,0,1-1.25,1.1c-.8.49-1,.64-1.08.76h0a.89.89,0,0,0,.31,0c.31-.07.35-.06.4,0s.08.24.22.29A2.32,2.32,0,0,0,152,26a3.85,3.85,0,0,0,1.95-.83c.15-.18-.23-.89-.23-.9A1.12,1.12,0,0,0,153.12,23.85Z"/><path class="cls-3" d="M155.05,18a.77.77,0,0,0-.23,0,3,3,0,0,0-1.3.72,0,0,0,0,0,0,0c.08,0,.15,0,.22,0s0,.06-.05.21-.16.33,0,.28a6.08,6.08,0,0,0,1.06-.79C155.11,18.18,155.2,18.05,155.05,18Z"/><path class="cls-3" d="M187.91,4.67a5.39,5.39,0,0,1-2.48,1.15A32.94,32.94,0,0,0,181.75,7c-1,1.3,1.46,1.72,1.49,1.72,6-.44,6.11-.38,6.53,0,0,0,2.84,3.14,1.93,4.84-.37.69-.37.71-.35.81.06.36.5.39.63.69.19.47,0,1,.26,1.47.79-.18,1.43-1,2.38-.59a1.39,1.39,0,0,1,.86,2c-.67.79-1.87.75-2.47,1.64a3.86,3.86,0,0,0-.4,2.61c.11.37,4.82,8.35,7.08,9.11-1.13-16.59-2-24.13-3.11-27.72,1,3.16,1.86,9.34,3.11,27.72,5.65,1.08,5.76,1,6.12.54.6-.67,1.62-5.83,1.63-5.88.15-.76-.25-1.56.18-2.29.23-.39.26-.39,1.67-.82,4.44-1.35,4.44-1.35,4.56-2.19s.19-1.35,1-1.76c1.94-1,4.17-1.12,6.11-2.12a19.7,19.7,0,0,0,2.39-1.19s.38-.28-.07-.86c-.66-.85-1.67-1.35-2.31-2.22a10.25,10.25,0,0,1-.67-1.88c-.33-.71-.18-.9.22-1.3.55-.55.17-.78-1-1.45-3.7-2.18-3.73-2.23-4-2.72,0,0,0-.1.06-.15l.19-.07c-1.08-1.06-3.27-.22-3.79-2.23l-.37-.18c0-.09.05-.22.08-.31l.15,0c-.49-.06-1.89-.15-1.9-.15a11.89,11.89,0,0,0-2.34.19c-.81.14-1.5-.39-2.28-.41-1.09,0-3.49,0-4.45,0-1.76.1-1.76.1-2,.24h0a14.28,14.28,0,0,0-2.84.28h0s0,0-.06,0h.08a7.16,7.16,0,0,1,1.46.16c-.09,0-.09,0-1.35,0a12.38,12.38,0,0,0-1.31.05,28.84,28.84,0,0,0-7.76,2C187.26,4.68,187.26,4.68,187.91,4.67Z"/><path class="cls-3" d="M170.88,23.7c.23-.61.13-.89-.3-.82,0,0-1.29.34-1.53.91-.13.33.4,1.19.61,1.32C170.19,25.45,170.88,23.72,170.88,23.7Z"/><path class="cls-3" d="M180,5.52l-.87.32c.92-.21,3.9-1,4.38-1.17a49.29,49.29,0,0,1-5.26,1.55,1.27,1.27,0,0,0-.66.29,1.84,1.84,0,0,1-.45,1c-.89-.27-3.2,1.07-3.29,1.14.21.1.45.06.64.18l0,.1a5.17,5.17,0,0,0,1.4-.42c-1.7.93-1.9.71-2,.56-1.29,0-1.37.52-1.4.76-.73.48-1.68.53-2.33,1.17a.28.28,0,0,0,.06.09,6.72,6.72,0,0,0,1.69-.24c1-.2,1.87-.9,3-.66-.08.19-.08.19-.3.36.72.15,3-1,2.83-1.55l-.26-.07a8.69,8.69,0,0,1,2-1.29c2.08-.5,2.8-1.28,2.82-1.46l-.1,0A12.31,12.31,0,0,0,185.27,5a1.44,1.44,0,0,0-.49,0l4.57-1.42c-1.12.16-1.19.17-1.61.2,1.07-.29,2.18-.45,3.25-.72a26.83,26.83,0,0,0-2.79.22S184,4,183.09,4.36a.58.58,0,0,0,.17.14,1.6,1.6,0,0,1-.76,0c-.31,0-3.89.83-4.26,1.28C178.42,5.91,178.47,5.93,180,5.52Z"/><path class="cls-3" d="M163.25,12.74c-.08.12-.13.25-.22.36a3.47,3.47,0,0,1-.59.51l.14-.37a.58.58,0,0,0,.06-.17,1.1,1.1,0,0,0-.78.41H162a.06.06,0,0,1,0,0,9.09,9.09,0,0,1-1.48.7c.07,0,.15-.05.22,0s-.06.12-.05.15.08,0,1.47-.43c-.44.24-1.6.88-1.69,1.17v0s1.57-.58,1.77-.69a6.48,6.48,0,0,0,1-.84s0,.05,0,.13v0a16.82,16.82,0,0,1,1.47-1.27c.23-.19.25-.21.28-.27a.43.43,0,0,0-.16,0s-1.39.42-1.53.5Z"/><path class="cls-3" d="M178.38,23.8c.64-.05,2.06,1.73,2.08,1.75.33.44.69.9,1,.84.89-.17,2.22-3.56,2.23-3.6a.88.88,0,0,0,.06-.36L177.25,21a9.66,9.66,0,0,1,1.92-1c.68-.3,1-.45,1-.63a7.42,7.42,0,0,0-3.44-2.8,4.71,4.71,0,0,1-1.49-.17c-.5-.25-.44-1.07-1.13-1.12a10.14,10.14,0,0,0-3,.84c-1,.38-1,.38-1.18.37a5.11,5.11,0,0,1-.2-1.81,6.3,6.3,0,0,0-2.08.13c-2,.46-7.78,5.34-6.68,6.09s4.82,0,5.32-.27c-.07-.31-.12-.52,1.51-.69,1.38-.15,1.59-.49,1.73-.71a12.81,12.81,0,0,1,1.23,1c.47.51.67,1.2,1.12,1.73s1.85.6,1.86,1.83c0,0-.28,2.78-4.12,3.93-1.15.35-2.4.28-3.49.86a1,1,0,0,0-.36,1.19c.21.19.89.27,2.91-.41,1.54-.52,1.54-.52,4.29.68-.23.24-.23.24-1.33.65.6.54,5.3,1.51,6.25,1,0-.14,0-.14-.28-.26a21.85,21.85,0,0,1-2.21-2,5.36,5.36,0,0,1,3.07,1c.18.12.31.21.4.18.52-.16,1.39-2.13,1-2.57-.91-.94-2.6-.82-3.12-2.3C176.29,24.46,178.36,23.8,178.38,23.8Z"/><path class="cls-3" d="M157.16,14.55a1.68,1.68,0,0,0,.71-.32.7.7,0,0,0,.18-.13H158A4,4,0,0,0,157.16,14.55Z"/><path class="cls-3" d="M193.08,18.21l1-.2a.72.72,0,0,0,.32-.3.27.27,0,0,0-.05-.27c-.08-.15-.26-.19-.37-.32a.3.3,0,0,1-.07-.21,0,0,0,0,0,0,0,.77.77,0,0,0-.47,0c-.45.09-1.72.83-1,1.26A1,1,0,0,0,193.08,18.21Z"/><path class="cls-3" d="M173.64,14.78l0,0a4.45,4.45,0,0,0-2.51-.41c-.89.15-.61.75-.4.93C171.43,15.83,173.62,14.79,173.64,14.78Z"/><path class="cls-3" d="M166.67,10.13a6.15,6.15,0,0,0-.85.38l.13,0a2.47,2.47,0,0,1,.87-.1c0,.15-.25.15-.29.31s.81-.23.86-.26a4.21,4.21,0,0,0,1.14-1.05c-.12,0-.21.06-.32.06.1-.19.34-.18.47-.33,0,0,0,0-.08,0a14.58,14.58,0,0,0-1.95.81c.17.05.33-.07.5-.06C167.17,9.92,167.08,10,166.67,10.13Z"/><path class="cls-3" d="M162.91,14.27c-.19.14-.26.18,0,.36s.88,0,1.41-.44c.31-.27.94-.91.65-.94l-.12,0A14.54,14.54,0,0,0,162.91,14.27Z"/><path class="cls-3" d="M171.43,9.61v0h-.07l-.06,0c-.41.12-.8.28-1.19.4s-.94.23-1.4.38a4.51,4.51,0,0,0-.61.21,12.92,12.92,0,0,0,2.2-.39,2.91,2.91,0,0,0,1-.51Z"/><path class="cls-3" d="M168.09,10.31v0c.15,0,1.53-.6,1.93-.79.17-.08.21-.11.21-.19s-.13,0-.13-.13,0-.08,0-.12h0a.11.11,0,0,0-.06,0,.32.32,0,0,0-.19,0l-.21.12c-.3.22-.5.56-.86.7S168.17,10.1,168.09,10.31Z"/><path class="cls-3" d="M171.29,8.24c1-.49,1-.5,1-.53l-.1,0s-1,.31-1.27.45-.22.28-.22.28S171,8.38,171.29,8.24Z"/><path class="cls-3" d="M173.4,7.78c.42-.12.55-.16.69-.1a.43.43,0,0,0,0,.05,3.35,3.35,0,0,1-.68.25,8.81,8.81,0,0,0-1.48.54c-.26.15-.28.45-.17.5s0,0,.75-.19c.29-.09.59,0,.88-.12.7-.25,1.29-.71,2-1,.42-.18.88-.24,1.29-.45l.09-.06s0,0-.33-.09v0L176.6,7c.58-.27.58-.29.59-.35s-.13,0-.18,0,.3-.17.26-.38c.12-.14.32-.19.43-.35h-.12a33.4,33.4,0,0,0-3.49,1.29,1.27,1.27,0,0,0,.39-.06,2.85,2.85,0,0,1-.94.33,2.18,2.18,0,0,0-1.16.62A5.57,5.57,0,0,0,173.4,7.78Z"/><path class="cls-3" d="M165.35,14.31c.06,0,7.14-.73,9-2.59.51-.5-.74-.58-.76-.58a27.56,27.56,0,0,0-4.48,1.35c-.59.24-1.05-.31-.93-.45a.8.8,0,0,1,.37-.16c1.14-.32.58-.68.45-.69a4.27,4.27,0,0,0-.84.2c-.33,0-.66-.09-1-.05a4.85,4.85,0,0,0-.65.11c-.17.07-.73.65-.72.79a1.41,1.41,0,0,0,.44-.1c.31-.11.75-.26.84-.2s-.39.83-.42.86c-.34.32-.83.45-1.15.81C164.9,14.32,165.15,14.31,165.35,14.31Z"/><path class="cls-3" d="M306.89,101.67c-.16-2.81-.29-6.57-.58-9.38-.13-.84-.24-1.61-.35-2.34-.67-2.22-.73-2.58-2-10.46a.47.47,0,0,0,0,.1c-3.23-10.73-3.23-10.73-3.29-11.25l.05,0a64.16,64.16,0,0,0-3.21-7.85l-3.46-6.76a13.71,13.71,0,0,0-3.68-3.42,12.75,12.75,0,0,1,3.68,3.42c-1.33-2.18-3-5.12-4.45-7.24-6.07-8.28-6.19-8.44-10-12.49l-4-4.07h0c-.15-.14-.3-.28-.46-.41a26.34,26.34,0,0,0,1.91,2.05,9.86,9.86,0,0,1-.84-.6,10.14,10.14,0,0,0,2,2l-.16.1c-2.8-2.29-5.19-5-8-7.29,1.42.88,2.53,2.19,4.07,2.9a40,40,0,0,0-7.5-6.1A14.78,14.78,0,0,1,264.13,21a1.77,1.77,0,0,1,.38.15,6.1,6.1,0,0,0-.92-.62l-.14.11a9.41,9.41,0,0,1-1.89-1.12l.41.14c-.24-.54-2.72-1.68-2.91-1.74a2.1,2.1,0,0,0,.53.77c-.86-.3-1.3-1.21-2.16-1.52.16.4.59.58.76,1-.31.68-.31.68-.26,1.1a35,35,0,0,0,2.1,4.18c1.49,2.29,1.43,3.09,1.42,3.17-.29,2.14-.29,2.14-1.46,3-.43.31-.42.46-.19,1,0,.08,3.16,7.41,6.05,6.07.93-.43.47-2,.25-2.71.23.18,5.41,5.32,6.38,7,.46.77.89,1.5,1.69,1.5a5.81,5.81,0,0,0-.26-3.25c-1.16-2.14-.89-2.39-.31-2.92,0-.52,0-.71-1.54-1.7-1-.69-1-.69-2.45-3-.54-.87.35-2-.45-2.79A23,23,0,0,1,267,26.47l-.11-.27L267,26c.77.26,3.35,2,3.54,2.5l-.21,0c2,4.47,2,4.47,3.89,6.23,1.66,1.54,4.17,1.3,5.83,2.82a3.55,3.55,0,0,1-.79-.29l-.16.1c.1.19.23.37.35.56a19.11,19.11,0,0,0-2.89-.83c1.1,1.51,2.66,2.63,3.52,4.34-1.08,0-1.16-1.61-2.32-1.52,0,.05-.08.12-.11.18s1.31,2.41,1.44,2.58,1.06,1.35,1,1.86c-.66-.06-.66-.06-.79,0-.09.2-.12.43-.21.64a.83.83,0,0,1,.11.15h0c-3.05-.21-3.05-.21-3.07.08l-.42.26a7.77,7.77,0,0,0-2.27-.76l1.47.25a3.07,3.07,0,0,0-2.1-.62c-.4,0-.5,0-1.63-1.28-.84-1-1.82-2.34-1.77-3.53,0-.49-.72-2.57-1.27-2.63-.07,0-1.65,0-1.38.76a36.44,36.44,0,0,0,3.58,5.54c.59.67.62.76.63.8s-.09.1-.52.18l-1,.17-.3.42c-1.62,0-1.62,0-2.06.38a17,17,0,0,0,.78,2.77l-.26.46a3.92,3.92,0,0,0-2.11.25,14.07,14.07,0,0,0,.59,1.5,4.8,4.8,0,0,1-1.14.55,3.14,3.14,0,0,1-.24,1.09,3.45,3.45,0,0,1-2.48-.76,10.34,10.34,0,0,0,.62,1l-.16.51a6.77,6.77,0,0,1-1.07.37c-.75-.48-.75-.48-2-.51l-.21.47,1,.9-.42.3c7.29,2,6.14,9.34,6.1,9.4-3.39-.24-6.66-1.25-10-1.6a5.86,5.86,0,0,0,.66.91c0,.09.37,9.13,1.53,9.47-.31,2.79-.31,2.79-.37,3a11.37,11.37,0,0,1,3.86,0c.39,1.6.39,1.6.41,1.63l5.53-1.83c1.52-.19,1.91-2.12,1.08-3.43.88-3.63.92-3.65,3.2-4.54,0-2.93,0-2.93.28-3.14,1.05-.87,1.87.53,2.86.53.9-1.59,1.64-2.62,3-1.41.07.06,7.78,8.91,8.54,11.39.57,1.88.3,1.91-2.95,2.36a17.12,17.12,0,0,0,2.62,2.8c.28-.88-.27-1.73-.1-2.61l.48.06c.41-.61.57-1.33.95-2a6.08,6.08,0,0,1-.47-2.3l.49-.13.66.9c-.16-.8-.16-.8-2.77-3.93,0-.15.08-.35.12-.5-1.23-.55-2.2-1-5.46-7.66a1.74,1.74,0,0,1,.74-.63l7.41,8.71s0,0,2.24,6.39L293,81.53a9.08,9.08,0,0,0,.07-1,20.11,20.11,0,0,0-.74-3.69c-.81-4-.81-4-.41-4.3a3.86,3.86,0,0,1,2.52,2.21,5.42,5.42,0,0,0,.43-.95l.53,0c.48-3.64-2.11-6.78-1.66-10.42a1.52,1.52,0,0,1,.94,0l-.21.45a3.67,3.67,0,0,0,1.18,1,2.79,2.79,0,0,1,0,1.63,18.66,18.66,0,0,1,1.11,1.81c1.75-1-.86-2.81-.35-4.29.79-.16.92.09,1.15.7l-.26.47c.27.43.27.43.67,2-.08.13-.2.29-.29.42,1.27,3.12,4.13,5.54,4,9.26l-.44.24c-1.51-1-1.43-4.37-3.88-3.72a1.69,1.69,0,0,1-.37.89c-.3-.1-.69-.21-1-.28a1.82,1.82,0,0,0,.47.83c-.56.48-1.32.19-1.93.49a6.06,6.06,0,0,0-.06,1.12c.13.05.32.1.46.14.25,1.86.7,5.32,3,7.26.1-.11.24-.26.35-.36s0-.35,0-.5c.75.62,1,1.67,1.86,2.19a4.27,4.27,0,0,0,.23-1,2.76,2.76,0,0,0,.83.56c.38,7,.44,8.13-.33,10-1-.08-1.18-.3-1.51-1.3a1.48,1.48,0,0,0-.86.37c-3.37-.25-3.06-5.15-6.58-5.2-.65,1.17-.13,2.52-.58,3.72l-.48.19c-.73-.53-8.46-7.56-9-8.48-.17-.28.06-.8.24-1.08.42-.67.42-.67.09-4.83a15,15,0,0,0-1.51-.92c-.68.52-.68.52-3.51-.13a4.75,4.75,0,0,0-.69.85c-3.67-1.43-6.64,2.59-10.29,1.32l-.54,0c-1,.21-1.39.28-2.51-1.07L262.9,78a3.64,3.64,0,0,0-.46.42c-.68.84-.16,2-.83,2.87-.84,1-2.41,1-3.18,2.17-.23.34-.12.95-.14,1.35-.23,4.44-.23,4.44-1.43,5a13,13,0,0,0-3.14,2.32c-.67,1.07-5.56,9.55-5.56,9.56-.2,2.27,1.3,4.18,1.34,6.39,0,1.87-2.62,2.75-1.78,4.9,1.25,3.23,3,6.23,4.49,9.34.63,1.31,5.33,5.81,6.22,5.72,4.43-.41,8.7-2.08,13.23-1.59a1,1,0,0,1,.44.23c.81.68.23,1.92,1,2.61s1.8.35,2.68.62c.58,1.76.58,1.76-.14,3.46,7.62,1.41,12.42,2.69,15.9,4.38-3.42-1.66-8.36-3-15.9-4.38-2,4.72-2,4.72-1.7,6.07.48,2.13,1.15,5-1.58,11.44-1.25,2.94-3.65,5.11-5.3,7.78-1.54,2.48-1.71,5.5-3.14,8-5.53,9.85-5.69,10-6.58,10.92a6.46,6.46,0,0,0-1.56,2.39c2.84.88,6.17-1.39,7.27-2.14l4.39-3.09,5.55-4.43c1.26-1.31,2-3,3.34-4.26,1.54-1.42,3.59-2.1,5.1-3.55,3.62-3.46,7-10.33,7.33-11.19,1.4-3.42,6.19-8.66,7.61-10.16,2.23-2.48,5.23-9,6-11.53-.57-.19-.57-.19-1.57,0-.22-.31-.22-.31.24-4.38a32.13,32.13,0,0,0-.19-4.49c-.08-3.89.68-7.77.33-11.67l-1-12.28c.25.38.25.38.5,2.16a2,2,0,0,0,.56-1c2.52,9.27-.15,18.57.15,27.85,1-.48,1-.48,1.47-.38,2.69-5.8,2.69-5.8,2.82-6.54,0,.16-.06.38-.09.55.06-.31.14-.72.18-1l.06-.34.29-2.15h0c.12-1,.27-2.2.5-5.54,0,.18,0,.34,0,.5C306.72,108.05,306.91,104.44,306.89,101.67Zm-.63,10.75c-.2-.42-.2-.42-.05-3.91-.1,1.1-.1,1.1-.16,1.59-.27-7.55-.15-8.24,0-9.2.44.66.62,6.25.55,9.47A9.56,9.56,0,0,1,306.26,112.42Z"/><path class="cls-3" d="M304.07,79.4c0,.12.08.29.1.42l.51,2.25,0-.11c.18,1.34.44,2.66.7,4a66.13,66.13,0,0,0-2.19-10.08c-.21-.64-.4-1.24-.59-1.8,1.19,4,1.23,4.21,1.73,6.34C304.22,80.06,304.15,79.73,304.07,79.4Z"/><path class="cls-3" d="M302.27,73c.05.13.09.26.15.39-.15-.49-.35-1-.46-1.46.06.16.12.32.17.48l-1.2-3.55v0a2.58,2.58,0,0,0-.22-.53c.47,1.4,1,3.17,1.85,5.67C302.48,73.73,302.38,73.39,302.27,73Z"/><path class="cls-3" d="M306.05,90.27c-.14-1.45-.42-2.89-.7-4.33l.61,4Z"/><path class="cls-3" d="M248.54,42.86l0,.09a11.08,11.08,0,0,0-.66,2.17c-.09.56-.06.83.13,1.07.32.39,1.83.22,2.92-.48.28-.18.53-.38.82-.53s.81,0,1.07-.42c.15-.21.09-.7-.18-1.44a3.36,3.36,0,0,0-.47-.87.81.81,0,0,1-.11-1,1.33,1.33,0,0,0,.11-.89,1.44,1.44,0,0,0-.63-.81,3.3,3.3,0,0,0-.41-.23c-.35-.17-.73-.25-1.08-.41a1.25,1.25,0,0,1-.38-.25s0,0-.07,0-2.37.59-.94,1.39a.6.6,0,0,0,.34.09.63.63,0,0,1-.2.13,3.94,3.94,0,0,0-1.38.91.91.91,0,0,0-.26.83.89.89,0,0,0,.51.54A4,4,0,0,0,248.54,42.86Z"/><path class="cls-3" d="M154.19,16.19h0c-.22.12-2,1.17-2.12,1.29C152.16,17.47,152.26,17.47,154.19,16.19Z"/><path class="cls-3" d="M296.44,85.64l.05,0s0,0,0,0-.86-1.12-.86-1.12a.86.86,0,0,0-.38-.24,8.46,8.46,0,0,1-.85-.16c-.48-.19-.48-.19-.53-.18-.22,0-.28.19-.15.43A4.58,4.58,0,0,0,296.44,85.64Z"/><path class="cls-3" d="M278.15,72.09c.18.19.56.09.63.44s-.06.63,0,.94a.39.39,0,0,0,.33.31,1.33,1.33,0,0,0,1.28-1.13,1.63,1.63,0,0,0,0-.31c-.05-.35-.18-.69-.23-1s0-.76-.08-1.13c-.09-.6-.3-.67-.51-.69a2.06,2.06,0,0,0-1.46.86A2.51,2.51,0,0,0,278.15,72.09Z"/><path class="cls-3" d="M272.91,71.92s.43-.48.43-.5c0-.17-.26-.32-.78-.38s-1.48.07-1.12.48a2.35,2.35,0,0,0,1.24.53A.34.34,0,0,0,272.91,71.92Z"/><path class="cls-3" d="M278.15,67.16a.32.32,0,0,0-.15.33,1.07,1.07,0,0,0,.16.29s.82,1,.87,1,0-1.54-.14-2.29a4.71,4.71,0,0,0-.42-1.25h0a.27.27,0,0,0-.05.12s0,.05,0,.07a5.64,5.64,0,0,0,.06,1.08A.77.77,0,0,1,278.15,67.16Z"/><path class="cls-3" d="M299.82,88.22a2.12,2.12,0,0,0,.53,0,7.86,7.86,0,0,0,.17-1.17V87c0-.12,0-.12-.06-.13s-.25.09-.4.09a.56.56,0,0,1-.29-.1c-.13-.08-.21-.21-.35-.27a.13.13,0,0,0-.18,0,1.75,1.75,0,0,0,.34,1.39A.45.45,0,0,0,299.82,88.22Z"/><path class="cls-3" d="M144,23.79l0,0a.25.25,0,0,0,.12,0c.58-.4,1.08-.9,1.66-1.3,1-.72,2.15-1.32,3.18-2.07.24-.18.24-.18.54-.74l0-.07a3.86,3.86,0,0,0-.94.5c.27-.23.27-.23.31-.41l0,0-.13,0c-1.28.54-1.28.54-6.92,5.18a3.89,3.89,0,0,0-1.28,1.57l.05,0A20.32,20.32,0,0,0,144,23.79Z"/><path class="cls-3" d="M151.91,18.43a3.72,3.72,0,0,0,1-.48c1.74-1,2.63-1.36,2.64-1.37a12.68,12.68,0,0,0,1.68-.65c.43-.22,2.05-1.34,2.06-1.35.31-.22.33-.26.37-.32a1.13,1.13,0,0,0-.49.13c-.49.28-.92.67-1.41.95.61-.6,1.32-1.09,1.91-1.71h-.06s-2,1-2.1,1.33-.32.72-1.86,1.08l0,0,.12-.13,0,0c.21-.23.93-.36.63-.69,0,0-4.17,2-4.2,2.57a21.2,21.2,0,0,0,2-1.08c-.2.33-.57.44-.85.66.05,0,.06,0,.54-.26a6.11,6.11,0,0,1,.88-.38,26.78,26.78,0,0,1-2.75,1.45C151.75,18.24,151.75,18.41,151.91,18.43Z"/><path class="cls-3" d="M140.42,28.66c.3.07.53-.19.82-.18l0,.06c-.13.35-.47.56-.64.88a16.49,16.49,0,0,0,4.68-2.5,4.22,4.22,0,0,1,1-.68l.06,0-.15.3a6,6,0,0,0,1.2.36c1-.34,1-.34,1.95-1.42l.05-.05c-.11,0-.11,0-1,.47a2.36,2.36,0,0,1,1.73-1c.23,0,.28,0,.37-.07s.5-.46.42-.87c-.52-.3-.73-.87-.46-1.21a27.49,27.49,0,0,0,2.33-3.14c-.1-.05-.21-.06-.31-.1l0-.1,0,0c-1,.83-1.66,2-2.82,2.66-.11-.48.38-.63.52-1l-.08-.06a10.58,10.58,0,0,1-1.32.62c.13-.22.37-.35.48-.59l0-.05c-.64.2-1.12.7-1.74.94.38-.53,1-.77,1.45-1.24-.39,0-5.46,3.32-5.34,3.93a1.18,1.18,0,0,1,.19.11c-.09.16-.1.17-.7.53-1,.61-1,.73-1,.88a.4.4,0,0,0,.19,0c.56-.11,1-.49,1.58-.61.39-.09.79.09,1.19,0a6.48,6.48,0,0,1-2.06.95C140.21,27.37,140,28.54,140.42,28.66Z"/><path class="cls-3" d="M163.63,33.47c.09-.22-.14-.21-.32-.19,0,0-.77.15-1,.38a.81.81,0,0,0-.08.92C162.54,34.82,163.51,33.78,163.63,33.47Z"/><path class="cls-3" d="M162.34,31.61a.44.44,0,0,0,.18-.15.59.59,0,0,0-.15-.55c-.17-.16-.39-.25-.55-.42a7.46,7.46,0,0,0-.74-.94l-.17-.12c-.32-.2-.72-.16-1-.36s-.2-.41-.41-.53h-.09a10,10,0,0,0-1.32,1.58c-.13.18-.29.43-.41.62l-1.08,1.74c.65.05.65.05.7.38s.06.41.12.4a2.65,2.65,0,0,0,.61-.45,4.64,4.64,0,0,1,2.34-1.25C161,31.48,161.66,31.85,162.34,31.61Z"/><path class="cls-3" d="M160.56,32.81a7,7,0,0,0-1.9.67c-.27.21-.31.81-.16.92.3.22,2.09-.84,2.41-1.34C161,32.9,161,32.73,160.56,32.81Z"/><path class="cls-3" d="M156.91,112.76c-.54.22-.24,1.07.1,1.19s1.63.35,1.6-.24A1.76,1.76,0,0,0,156.91,112.76Z"/><path class="cls-3" d="M255.07,42.49c-.1,0-.08.07-.06.17l.69.05A1.77,1.77,0,0,0,255.07,42.49Z"/><path class="cls-3" d="M189.13,49.69c.65-.85.93-1.41.85-1.68a.25.25,0,0,0-.12,0,7.27,7.27,0,0,0-2,1.82c-.88,1.09-1.49,2.37-2.35,3.47-.47.58-1.11,1-1.54,1.6-.17.24,0,.31,0,.34a13.73,13.73,0,0,0,2.73.28,19.7,19.7,0,0,1,3.78.57,3.54,3.54,0,0,0,.44.11c.43,0,.87-.4,1.29,0a1.54,1.54,0,0,1,.24.88c0,.28.15.31.23.3.42,0,.94-.86,1-1.54a6.06,6.06,0,0,0-1.6-3.72c-.43-.48-.43-.48-2-.14-.47.1-.57,0-.68-.39-.2-.74-.38-.87-.67-1s-.15-.13-.07-.27A3.92,3.92,0,0,1,189.13,49.69Z"/><path class="cls-3" d="M250.45,36c.09.53-.33,1-.11,1.58.16.06.51,0,1.24-.53.26-.2.49-.38.68-.28.74.42-.12,1.22.13,1.81a2.31,2.31,0,0,0,1.91,1.55,5,5,0,0,1,1.59.52c0,.19-.08.39,0,.58.32.57.9,1,1.19,1.58s-.61.26-1.18,0c-.23-.11-.23-.11-.92-.16.28.79,1.17,1.17,1.35,2,.09.46-.34.7-1,1-.16.08-.41.2-.32.38s.32.41,1.79.37c.62,0,1.92,0,2,.37s-.27.38-.71.38a.87.87,0,0,0-.74.26c-.31.29-.36.74-.64,1s-.81.62-1.16,1c0,0,0,.08,0,.12.2.05.2.05,3-.31,1.42-.18,2.86-.07,4.28-.27h.05l2.44-.82a.32.32,0,0,0,0-.09c-.51-.5-1.15,0-1.71-.25-.26-.74.42-1.41.15-2.14-.5-1.32-1-1.29-1.44-1.27-.94,0-1.59-1.27-1.59-1.29l0-.06c.06,0,.06,0,.8.15.33.12.79.28.76.11v0A1.61,1.61,0,0,0,262,43c-1.15-.89-2.59-1.34-3.64-2.37a9.61,9.61,0,0,0-1.47-1.52,5.19,5.19,0,0,0-2.53-.84h0c.62-.56,1.44-3.29-.23-3.36a5.57,5.57,0,0,0-.87.06c-1.06.14-1.25.17-1.26-.11,0-.55.93-1.59.16-1.63,0,0-2.08,0-2.38.77,0,.07,0,.17,0,.24C249.9,34.85,250.35,35.37,250.45,36Z"/><path class="cls-3" d="M114.32,62.93c.26-.62.41-1.28.65-1.91.15-.37.32-.74.46-1.11a.88.88,0,0,1,0-.15s.11-.35-.06-.31l-.08,0c-.56.45-1.19,3.35-1.08,3.52Z"/><path class="cls-3" d="M237,22.29a.48.48,0,0,0,0-.12,2.07,2.07,0,0,0-.85-.75l-.23-.08a15.75,15.75,0,0,1-1.81-.25c-.42-.17-.73-.58-1.23-.56s-1.11.38-1.68.51a16.12,16.12,0,0,0-1.69.29c-.35.11-.1.55-.37.7s-.6-.15-.9,0l-.14.09c-.11.49.33,1.06-.21,1.49a8,8,0,0,1-1.63-1.49c-.47-.89-2.46-1.45-3-1,.15.45.7.35,1,.68-.16.66-.93.55-1.25,1a2.29,2.29,0,0,0,1.16,0c.62-.11,2.57.56,1.48,1.46.47.58,1.09.09,1.62.24s.55.36.55.84c.13.11.24.16,1.34,0a9.13,9.13,0,0,1,1.19-.08c.53,0,1,.27,1.54.3H232a9.37,9.37,0,0,0,1.9-.36c1.31-.32,3.32-1.78,3.22-2.2s-.31-.46-.39-.73C236.82,22.28,236.82,22.28,237,22.29Z"/><path class="cls-3" d="M158.68,110.41c.58.75,4.18,1,4.24.6,0-.23-4.58-5.54-4.63-5.58a5.52,5.52,0,0,0-4.56-.78,6.54,6.54,0,0,0-2.53,1.53,3.22,3.22,0,0,0,2.25-.52c1.34-.76,2.23-.34,2.31-.1s-.25.32-.68.08l0,0c.05.64,1.12.91,1.83,1.09,1.3.33,1.39.6,1.66,1.43a2.79,2.79,0,0,0,.49,1,1.29,1.29,0,0,1,.34.55C159.39,110.2,158.89,110.18,158.68,110.41Z"/><path class="cls-3" d="M164.42,114.82c.37.22.07.9.6,1,.92.09.82-1.15,1.61-1.23a1.82,1.82,0,0,1,.44,0,33.63,33.63,0,0,0,3.85.31c.12,0,.2,0,.2-.15,0-.41-.31-.75-.21-1.17.34-1.32-6.37-1.9-6.79-1.83a.33.33,0,0,0-.17.08c0,.11,0,.11.1.2a1.89,1.89,0,0,1,.62,2c-.13.11-.66,0-1.4-.1a4.84,4.84,0,0,0-1.57-.15s0,.06.05.08C162.58,114.37,163.59,114.35,164.42,114.82Z"/><path class="cls-3" d="M177.92,52.56c-.58.21.74.85,1,1,1.73.81,2.33-.07,2.33-.08C181.48,53,178.55,52.45,177.92,52.56Z"/><path class="cls-3" d="M286.21,160.36c-1.9,2.45-1.95,2.46-3.19,2.91-1,.36-1.34.82-2.87,3a6.67,6.67,0,0,1-1.8,1.93,32.84,32.84,0,0,0-5.5,6.09c.84,0,.84,0,4-3,2.59-2.47,4.86-5.24,7.33-7.82,0,.07,0,.07-.23.43.1-.07.1-.07.33-.36a23.77,23.77,0,0,0,2.65-4l-.06,0C286.67,159.76,286.67,159.76,286.21,160.36Z"/><path class="cls-3" d="M222,142.41c-.13-.71.81-1.67-.08-2.13-.64-.32-1.26.15-1.89,0-2.05-.45-3.39-2.23-5.35-2.83-2.92-.9-5.93-1.42-8.89-2.16-1.72-.63-1.87-2.61-2.93-3.76-1.8-1.17-3.15-3.08-5-4.16-2.47-1.41-5.51-.93-7.95-2.41-1.94-1.17-3.24-3.17-5.31-4.16a4.07,4.07,0,0,0-1.06-.33c-10-1.51-18-2.71-18.87,5.25-3-2.12-10.63,1.23-9.93-3.71a8.52,8.52,0,0,0-.86-5.2c-2.33-1.18-4.69,0-7-.12.78-2.56.78-2.56.21-3.76a13.44,13.44,0,0,0,1.39-4.52c-.44-.39-4.35-3.55-5.19,5.28-1.34-.08-2.21,1.81-3.75.92a10.65,10.65,0,0,1-5.26-6.09c-.51-1.71.93-3.05.89-4.67,0-1-1.41-1.53-1.05-2.72.47-1.53,3.3-4.41,4-4.92,1.18-.91,5.77.13,5.81.14l.41-.34A9.9,9.9,0,0,0,143,95.2c0-.15.08-.35.11-.5.92-.54,8.21-1.17,8.24-1.15,3.12,1.67,1.22,6,4.21,7.79,3.54-3.73-2.14-7-1.51-10.8s4.53-4.79,6.7-7.28h0l-.32-.36c0-.14,0-.33.06-.47l.45-.13c0-.17,0-.39.06-.56l-.45-.17.72-7.13c.06,1.06.05,4.27.05,4.27.34-.22.34-.22.64-4.91a6,6,0,0,1,.83,1.48c.64-1.1.42-2.54,1.41-3.5a49,49,0,0,1,4.53-2.28c.39-3.68.39-3.68,2.45-5.61.35,0,.35,0,6.34-3.45l-.2.42a3.58,3.58,0,0,0,1.08.22v.51c-3.47,2.47-3.47,2.47-3.52,3.18,2.35,0,9.58-4.16,8.29-7.41-1,.67-1,1.89-1.63,2.79l-1.93-.55a1.83,1.83,0,0,0,.92-.67,0,0,0,0,0,0,0v0s-.06,0-.2,0a2.66,2.66,0,0,1-1.64-.16.77.77,0,0,1-.5-.88c0-.15,0-.16,0-.18l0,0a1.79,1.79,0,0,0-.07,1.35c-.9-.42-1.05-.88-1.41-2-.84-.31-.9-.38-1.26-.83,1.27-.34,2.18-.59,2.45-1.86-.65-.64-.65-.64-9.68,5,6.22-6.47,6.22-6.47,12.6-8.4,1.46,1,8-2.25,9-4.06-.32-.78-.32-.78.15-1.95l-.29-.45L188,44.21h-.46a6.38,6.38,0,0,0-3,1.24l-.19-.43c.52-.75.77-.84,2.7-1.59-3.75.32-7.4.63-11.43,1,3.7-.39,6.91-.68,11.46-1a.81.81,0,0,0,.3-.21c.09-.23-1.42-1.53-3.32-1-.42.11-.42.11-.65,0-.13-.37.17-.77-.1-1.13s-1.06-.35-1.42-.83c-.15-.21-.05-.39.24-.78.41-.58.41-.58-.5-2.21-2.3-4.11-2.3-4.11-3.42-2-.18.34.26.68,0,1s-.93,0-1.25.45c-.71,1-.71,1-.92,1-1.25.38-2.12-.63-3.2-.87a4.58,4.58,0,0,1,.9-3.11c-.64-.21-1.31.1-1.95-.13-.15-.06-.24-.16-.44-.5-.07-.11-.22-.38-1.8-.9a1.26,1.26,0,0,0-.69-.08c-1.44.39-3,.07-4.38.65.25,1.34-1.39,2.53-.28,3.93-.21.65-1.06.87-1.11,1.63s.85,1.41.88,2.27c0,0,.06,3.47-1.92,3.93-.43.1-1.41.41-1.2,1.14a3,3,0,0,1-.55.47c-.52,2,.79,4.48-1.49,6.06-.71-1.09-2-1.4-2.95-2.11a3.35,3.35,0,0,0,0-2.86l.56-.45c0-.08,0-.26,0-.34a3.64,3.64,0,0,0-.57,0c-.94-.9-2.07-.08-3.07-.35s-1.55-1.32-2.53-1.66a3.4,3.4,0,0,0-.57-.15c-.89-.15-1.53.51-2.31.73-.27-.22-.27-.22-.61-2.27-.12-.71-.12-.71-1.8-.84-.38-2.18,4.92-6.11,7.18-7.79-.26-.7-1-.39-1.45-.73,4.41-.79,4.41-.79,6.92-3.46-1.71.3-2.06.36-3.45-.43,1.64-.59,3.75.44,5-1.47a1.07,1.07,0,0,0-.48-.17s.82-1,1.68-.45c2.85-1,2.85-1,3.61-1.7a2.63,2.63,0,0,0,.46-.54c.31-.52-.2-1.08.08-1.6s.86-.43,1.19-.79A3.81,3.81,0,0,0,166,22s-2.43-2.48-3.24,1c-1.48.86-2.54,4.33-4.34,2.72.15-1.07,2.32-1.76,1.31-2.82-1.15.43-1.61,1.59-2.46,2.34-.2-.58,1-2.11,1-2.12a6.64,6.64,0,0,0-1.09-.06c1.78-2.86,1.78-2.86,1.78-3.21l-.27-.2c1-1.56,1-1.56,5.74-4.35a1.89,1.89,0,0,0-.85.06c-3.79.88-8.91,8-8.95,8.06l.13.26c.4,0,.8-.09,1.2-.11,0,.07,0,.17.06.24a4.22,4.22,0,0,0-1.35.86v.21h0l.24,0c-.8,1.39-2.57,1.86-3.22,3.39-.62-.64-.62-.64.53-1.88-.66-.17-.66-.17-2.82,1.53-.12.09-.83.55-3.5.43-.17-.26-.14-.59-.32-.84-2.15.56-2.79,1.81-4.07,4.3-.24-.63.31-1.15.24-1.76-1.16.19-2.11,1.14-3.38.95.53-.52,1.39-.71,1.59-1.57l-.22-.12c-.29.16-.33.18-1.16.09a2.25,2.25,0,0,0-.36-.4c-.58.12-.92.62-1.38.94a4.45,4.45,0,0,1,.33-.51,5,5,0,0,0-.83.73,6,6,0,0,1,1.08-1.57c-1.4,1.29-1.4,1.29-4,3.47h0c.81-.77,1.68-1.47,2.51-2.23a42.32,42.32,0,0,0-4.13,3.66,2.63,2.63,0,0,1,.3-.44l-4.73,5.3c-6.12,8-6.24,8.13-8.94,12.62l0,0a1.53,1.53,0,0,1,.14-.21c-1.82,4.56-1.82,4.56-2,5.81l-.39,1.2.27.46a32.1,32.1,0,0,0-1.19,4.92,3.94,3.94,0,0,0,.25,2.1,1.67,1.67,0,0,0-.46-.08c-.1,0-.16,0-.19-.07s0,0-.11-.27-.14-.48-.24-.5h0a4.63,4.63,0,0,0,0,2c.21.72.72.62.73.62a.58.58,0,0,0,.34-.36,1.32,1.32,0,0,0,.08-.45c0-.12,0-.24,0-.36s0,0,0,0a5.55,5.55,0,0,1,.46,2.16c-.25-.14-.58-.32-.83-.44-3.06,3.8-4.12,22.87-2.09,26.43.26,0,.26,0,4.69,9.11-.32,0-.73,0-1,0,.53,1.12,4.44,6.16,4.47,6.2.36-.52.72-1-1.07-3.6-.82-1.16-1.74-2.47-3.3-8.81a4.92,4.92,0,0,1,2.42,3.55,8.6,8.6,0,0,0,.77,2.39c.8,1.27,1.78,2.42,2.63,3.66,1.1,1.6,3,2.5,3.9,4.27.75,1.42.39,3.32,1.92,4.4a4.22,4.22,0,0,0,.78.35,14.9,14.9,0,0,0,1.43.6c1.58.4,3.19.65,4.77,1s3.35-.54,4.93.36c3.64,2.07,3.64,2.07,4.92,2.21l.64.08c5.71.8,8.08,7.87,14.33,7.65,2.79-4.65,4.51.92,5.12,3.53.19.83.19.83-1.38,4.27,0,.05-1.53,6.25-.88,7.4.1.19.24.45.36.63,2.05,3.05,10.48,11.38,10.55,11.44,2,1.77,4.84,2.18,7,3.73,1.65,1.19,2.89,3.52,3.48,6.57,0,.14,3.26,14.62,8.88,22.53,7.13,10,14,8.92,14.09,8.9-6.64-3.42-6.64-3.42-6-6.23-.92-1-.92-1-2.66-5.78.27-.09.27-.09,1.52,0,0-.13,0-.13-1.52-2.22,1.16-1,1.16-1,1.08-1.87l.29-.18c2.06.63,2.75-1.07,2.21-1.85l-.6-.85c4.69-.13,6.68-11.47,6.7-11.59a6.18,6.18,0,0,1,3.17-2.6c1.66-.69,1.68-2.65,2.86-3.72A1.6,1.6,0,0,1,216,159c.69.09.74.1.83-.55.19-1.42.06-2.85.13-4.28,0-.79-.43-1.61.1-2.39s.83-1.24.4-1.83a1.23,1.23,0,0,1-.19-.4c3.92-1.43,5.31-5.68,5.32-5.72a.86.86,0,0,0,0-.16C222.5,143.22,222.12,142.88,222,142.41ZM123.67,53.76c1.38-.45,2.85-.88,4.36-1.3C126.53,52.88,125.06,53.31,123.67,53.76Zm44.49,80.91c1.77-.22,3.57-.44,5.46-.65Zm39.74,24.84c-.07-.69-.3-2.94-.66-6.94.21,2.33.43,4.65.68,7.09C207.91,159.61,207.91,159.56,207.9,159.51ZM206,137.8l0,.39Z"/><path class="cls-3" d="M173.28,115.34c-.54.36.16,1.06.82,1.17a4.77,4.77,0,0,0,2-.29c0-.07-.08-.26-1.19-.6S173.53,115.28,173.28,115.34Z"/><ellipse class="cls-4" cx="205.07" cy="102.41" rx="57.48" ry="100.41"/><ellipse class="cls-4" cx="206.33" cy="103.33" rx="101.96" ry="101.03"/><line class="cls-4" x1="104.43" y1="99.11" x2="307.92" y2="99.11"/><line class="cls-4" x1="205.07" y1="201.55" x2="205.07" y2="3.26"/><line class="cls-4" x1="114.25" y1="59.45" x2="299.19" y2="59.45"/><path class="cls-5" d="M233.18,96.74l4.59-2.61,5.44-31.65a39.35,39.35,0,0,0,5-2.4c6.22-3.53,10.29-7.86,9.11-9.66s-6.6-.53-12.47,2.61l1.44-8.35c17.61-10.5,20.8-15.57,18.91-18.45S257,23.68,238.8,33.5l-8.52-2.57c5.68-3.42,9.3-7.41,8.17-9.12s-7.19-.4-13.4,3.13a40,40,0,0,0-4.58,3l-32.81-9.91-4.59,2.6,38.61,22.83c-12.93,8-25.81,16.89-32.17,22.57l-14.63-6.48-3.75,2.13L183,73.32l5.74,15.1,3.76-2.14.17-15.66c8.37-2.7,22.72-9.27,36.23-16.3Z"/><path class="cls-6" d="M104.07,77.3c.45.72-7.1,4.84-14,14.32-3.35,4.59-5.44,7.53-5.61,11.68-.32,7.88,6.51,13.81,8.72,15.73,6,5.18,12.9,7.28,25.55,8.88a188.23,188.23,0,0,0,35.82,1.4,339.66,339.66,0,0,0,68.68-13.08c7.77-2.37,24.45-8.37,56.07-23,0,0,15.12-6.47,33-23.2a19.91,19.91,0,0,0,6.08-9.66c1.1-4.37.9-10.94-3.12-15-2.14-2.14-5.37-2.88-11.83-4.36-7.35-1.69-11.18-1.6-11.22-2.34-.05-1,6.52-2.71,13.55-2.8,4.39-.06,14.66-.06,23.52,6.85,3.12,2.44,5.8,5.43,6.52,10.36.44,3,1.61,6.54-3.68,13.9a75.29,75.29,0,0,1-16.54,17c-12.79,9.66-25.45,15.85-38,21.5-15.79,7.1-27.11,12.19-43.92,17.75-19,6.3-33.46,9.35-48.9,12.62-13.51,2.85-27.57,5.78-46.57,7.63-14,1.36-26.23,1.7-39.87.31-24.12-2.46-30-8-32.55-11.37-.87-1.12-6.65-8.79-5-17.91.72-4,2.52-6.45,5.45-10.44,2.33-3.17,8-10.27,21.34-18.69C95.79,80.19,103.61,76.57,104.07,77.3Z"/><path class="cls-7" d="M0,312.14V221.87H35.38q10.24,0,17.58,3.75A26.85,26.85,0,0,1,64.2,236.11a30.82,30.82,0,0,1,3.9,15.75,30.36,30.36,0,0,1-4,15.75,26.78,26.78,0,0,1-11.36,10.45q-7.38,3.74-17.69,3.73H11.15V266.46H33.26a19.59,19.59,0,0,0,8.88-1.82,12.65,12.65,0,0,0,5.48-5.12,16.57,16.57,0,0,0,0-15.33,12.88,12.88,0,0,0-5.48-5.06,19.75,19.75,0,0,0-8.94-1.81H18.54v74.82Z"/><path class="cls-7" d="M78.53,312.14V246.47H95.92V257.8h.42a16.33,16.33,0,0,1,5.82-9,16.53,16.53,0,0,1,10-3q1.52,0,3,.09t2.61.27v15.63a29.25,29.25,0,0,0-3.33-.42c-1.5-.12-3-.18-4.43-.18a14,14,0,0,0-7,1.73,12,12,0,0,0-4.81,5,16.41,16.41,0,0,0-1.73,7.79v36.41Z"/><path class="cls-7" d="M136.27,238.1a10.12,10.12,0,0,1-7.21-2.72,8.86,8.86,0,0,1-2.91-6.73,8.74,8.74,0,0,1,2.91-6.69,10.9,10.9,0,0,1,14.36,0,8.74,8.74,0,0,1,2.91,6.69,8.86,8.86,0,0,1-2.91,6.73A10.06,10.06,0,0,1,136.27,238.1Zm-9,74V246.47h18v65.67Z"/><path class="cls-7" d="M159.17,312.14V246.47h17l.42,15.51h-1.21a25.23,25.23,0,0,1,4.69-9.42,19.27,19.27,0,0,1,7.18-5.46,21.46,21.46,0,0,1,8.61-1.79,18,18,0,0,1,12.33,4.4q5,4.39,6.57,12.75h-2a22.11,22.11,0,0,1,4.58-9.45,20.75,20.75,0,0,1,7.81-5.76,24.86,24.86,0,0,1,9.79-1.94A22.44,22.44,0,0,1,246,248a19.14,19.14,0,0,1,7.67,7.82,25.63,25.63,0,0,1,2.82,12.48v43.86h-18V271.67c0-3.84-1-6.7-3.12-8.6a10.93,10.93,0,0,0-7.66-2.85,11.41,11.41,0,0,0-6,1.51,10.18,10.18,0,0,0-3.88,4.21,13.73,13.73,0,0,0-1.36,6.28v39.92H199.16v-41a10.72,10.72,0,0,0-3-7.94,10.32,10.32,0,0,0-7.63-3,11.39,11.39,0,0,0-5.79,1.48,10.6,10.6,0,0,0-4.09,4.34,14.5,14.5,0,0,0-1.51,6.9v39.2Z"/><path class="cls-7" d="M300.34,313.54a33.94,33.94,0,0,1-17.26-4.27,29.42,29.42,0,0,1-11.46-11.94,41.45,41.45,0,0,1,0-35.78,29.29,29.29,0,0,1,11.46-12,37.08,37.08,0,0,1,34.59,0,29.32,29.32,0,0,1,11.39,12,41.45,41.45,0,0,1,0,35.78,29.45,29.45,0,0,1-11.39,11.94A33.89,33.89,0,0,1,300.34,313.54Zm0-14.42a12.61,12.61,0,0,0,7.85-2.46,15.53,15.53,0,0,0,5-6.87,31.37,31.37,0,0,0,0-20.72,15.56,15.56,0,0,0-5-6.88,13.74,13.74,0,0,0-15.66,0,15.28,15.28,0,0,0-5,6.85,32,32,0,0,0,0,20.75,15.23,15.23,0,0,0,5,6.87A12.61,12.61,0,0,0,300.34,299.12Z"/><path class="cls-7" d="M371,313.6a40.78,40.78,0,0,1-14.66-2.46A24.52,24.52,0,0,1,346,304a21.39,21.39,0,0,1-4.76-11.27l17.27-1.28a10.6,10.6,0,0,0,4,6.73q3.15,2.35,8.54,2.36c3.4,0,6.06-.63,8-1.91a5.7,5.7,0,0,0,2.91-4.93,5,5,0,0,0-2.15-4.22,16.12,16.12,0,0,0-6.33-2.45L362,284.82q-9.51-1.94-14.35-6.7a16.33,16.33,0,0,1-4.85-12.21,17.77,17.77,0,0,1,3.42-10.9,21.88,21.88,0,0,1,9.63-7.12,38.85,38.85,0,0,1,14.64-2.51,37.74,37.74,0,0,1,14.24,2.45,22.84,22.84,0,0,1,9.6,6.94,20.3,20.3,0,0,1,4.21,10.66L382.2,266.7a9.09,9.09,0,0,0-3.45-6.09,12.12,12.12,0,0,0-7.82-2.39,12.9,12.9,0,0,0-7.36,1.91,5.7,5.7,0,0,0-2.82,4.88,5.24,5.24,0,0,0,2,4.21,14.33,14.33,0,0,0,6.21,2.51l12.12,2.36q9.75,2,14.45,6.37a15,15,0,0,1,4.7,11.51,18.08,18.08,0,0,1-3.76,11.39,24.39,24.39,0,0,1-10.33,7.54A39.7,39.7,0,0,1,371,313.6Z"/><path class="cls-8" d="M.84,335.11v-3.76H18.47v3.76H11.89V353H7.44V335.11Z"/><path class="cls-8" d="M44.53,353V331.35h8.55a9.38,9.38,0,0,1,4.21.87,6.39,6.39,0,0,1,2.7,2.46,7.24,7.24,0,0,1,.93,3.75,6.83,6.83,0,0,1-1,3.7,6.31,6.31,0,0,1-2.77,2.39,10.23,10.23,0,0,1-4.29.83H47.17v-3.58h5.4a5.19,5.19,0,0,0,2.13-.4A2.9,2.9,0,0,0,56,340.22a3.42,3.42,0,0,0,.45-1.79,3.48,3.48,0,0,0-.45-1.82,2.94,2.94,0,0,0-1.32-1.16,5,5,0,0,0-2.13-.41H49V353Zm12.15,0-5.08-9.8h4.75l5.18,9.8Z"/><path class="cls-8" d="M86,353l7.51-21.64h5.76l7.6,21.64H102l-3.43-10.48c-.42-1.37-.85-2.82-1.28-4.35s-.9-3.23-1.41-5.11H97q-.74,2.82-1.38,5.12c-.42,1.54-.84,3-1.26,4.34L90.87,353Zm4.73-4.85v-3.53h11.42v3.53Z"/><path class="cls-8" d="M135.86,353l-7.58-21.64h4.89l3.49,10.49c.41,1.32.83,2.75,1.27,4.3s.91,3.26,1.42,5.09h-1.14c.49-1.84.94-3.54,1.37-5.09s.84-3,1.23-4.3l3.37-10.49H149L141.6,353Z"/><path class="cls-8" d="M174.62,353V331.35h15.06v3.76H179.07v5.12h9.82v3.67h-9.82v5.33H189.7V353Z"/><path class="cls-8" d="M216.13,353V331.35h4.44v17.88h9.62V353Z"/><path class="cls-8" d="M256.24,353V331.35h4.44v17.88h9.62V353Z"/><path class="cls-8" d="M296.35,353V331.35h15.06v3.76H300.8v5.12h9.81v3.67H300.8v5.33h10.63V353Z"/><path class="cls-8" d="M337.86,353V331.35h8.55a9.38,9.38,0,0,1,4.21.87,6.33,6.33,0,0,1,2.7,2.46,7.25,7.25,0,0,1,.94,3.75,6.83,6.83,0,0,1-1,3.7,6.31,6.31,0,0,1-2.77,2.39,10.23,10.23,0,0,1-4.29.83H340.5v-3.58h5.4a5.12,5.12,0,0,0,2.13-.4,2.92,2.92,0,0,0,1.32-1.15,3.42,3.42,0,0,0,.45-1.79,3.48,3.48,0,0,0-.45-1.82,2.92,2.92,0,0,0-1.33-1.16,5,5,0,0,0-2.13-.41H342.3V353ZM350,353l-5.09-9.8h4.75l5.19,9.8Z"/><path class="cls-8" d="M388.8,353.33a11.44,11.44,0,0,1-4.64-.85,6.51,6.51,0,0,1-3-2.47,7.3,7.3,0,0,1-1.08-3.95h4.31A3.51,3.51,0,0,0,385,348a3.56,3.56,0,0,0,1.53,1.21,5.91,5.91,0,0,0,2.28.41,6,6,0,0,0,2.13-.34,3.36,3.36,0,0,0,1.4-1,2.24,2.24,0,0,0,.51-1.46,1.87,1.87,0,0,0-.42-1.23,3.39,3.39,0,0,0-1.26-.89,12.13,12.13,0,0,0-2.14-.67l-2.32-.53a9.7,9.7,0,0,1-4.57-2.15,5,5,0,0,1-1.56-3.81,5.83,5.83,0,0,1,1-3.44,6.83,6.83,0,0,1,2.88-2.29,10.51,10.51,0,0,1,4.26-.82,10.13,10.13,0,0,1,4.25.83,6.51,6.51,0,0,1,2.81,2.35,6.77,6.77,0,0,1,1.06,3.58h-4.25a3,3,0,0,0-1.14-2.25,4.29,4.29,0,0,0-2.75-.82,5,5,0,0,0-1.93.34,3,3,0,0,0-1.28.92,2.16,2.16,0,0,0-.45,1.36,1.83,1.83,0,0,0,.42,1.22,3.2,3.2,0,0,0,1.24.85,11.14,11.14,0,0,0,2,.61l2,.47a15,15,0,0,1,2.79.88,7.6,7.6,0,0,1,2.06,1.28,5.05,5.05,0,0,1,1.28,1.77,5.52,5.52,0,0,1,.45,2.28,6.11,6.11,0,0,1-1,3.53,6.52,6.52,0,0,1-2.92,2.29A11.57,11.57,0,0,1,388.8,353.33Z"/></g></g></g></svg>